HIERARCHY
ROOT Hips
{
	OFFSET 0.000000 0.000000 0.000000
	CHANNELS 6 Xposition Yposition Zposition Zrotation Yrotation Xrotation 
	JOINT LHipJoint
	{
		OFFSET 0.000000 0.000000 0.000000
		CHANNELS 3 Zrotation Yrotation Xrotation
		JOINT LeftUpLeg
		{
			OFFSET 1.363060 -1.794630 0.839290
			CHANNELS 3 Zrotation Yrotation Xrotation
			JOINT LeftLeg
			{
				OFFSET 2.448110 -6.726130 0.000000
				CHANNELS 3 Zrotation Yrotation Xrotation
				JOINT LeftFoot
				{
					OFFSET 2.562200 -7.039590 0.000000
					CHANNELS 3 Zrotation Yrotation Xrotation
					JOINT LeftToeBase
					{
						OFFSET 0.157640 -0.433110 2.322550
						CHANNELS 3 Zrotation Yrotation Xrotation
						End Site
						{
							OFFSET 0.000000 0.000000 0.000000
						}
					}
				}
			}
		}
	}
	JOINT RHipJoint
	{
		OFFSET 0.000000 0.000000 0.000000
		CHANNELS 3 Zrotation Yrotation Xrotation
		JOINT RightUpLeg
		{
			OFFSET -1.305520 -1.794630 0.839290
			CHANNELS 3 Zrotation Yrotation Xrotation
			JOINT RightLeg
			{
				OFFSET -2.542530 -6.985550 0.000000
				CHANNELS 3 Zrotation Yrotation Xrotation
				JOINT RightFoot
				{
					OFFSET -2.568260 -7.056230 0.000000
					CHANNELS 3 Zrotation Yrotation Xrotation
					JOINT RightToeBase
					{
						OFFSET -0.164730 -0.452590 2.363150
						CHANNELS 3 Zrotation Yrotation Xrotation
						End Site
						{
							OFFSET 0.000000 0.000000 0.000000
						}
					}
				}
			}
		}
	}
	JOINT LowerBack
	{
		OFFSET 0.000000 0.000000 0.000000
		CHANNELS 3 Zrotation Yrotation Xrotation
		JOINT Spine
		{
			OFFSET 0.028270 2.035590 -0.193380
			CHANNELS 3 Zrotation Yrotation Xrotation
			JOINT Spine1
			{
				OFFSET 0.056720 2.048850 -0.042750
				CHANNELS 3 Zrotation Yrotation Xrotation
				JOINT Neck
				{
					OFFSET 0.000000 0.000000 0.000000
					CHANNELS 3 Zrotation Yrotation Xrotation
					JOINT Neck1
					{
						OFFSET -0.054170 1.746240 0.172020
						CHANNELS 3 Zrotation Yrotation Xrotation
						JOINT Head
						{
							OFFSET 0.104070 1.761360 -0.123970
							CHANNELS 3 Zrotation Yrotation Xrotation
							End Site
							{
								OFFSET 0.000000 0.000000 0.000000
							}
						}
					}
				}
				JOINT LeftShoulder
				{
					OFFSET 0.000000 0.000000 0.000000
					CHANNELS 3 Zrotation Yrotation Xrotation
					JOINT LeftArm
					{
						OFFSET 3.362410 1.200890 -0.311210
						CHANNELS 3 Zrotation Yrotation Xrotation
						JOINT LeftForeArm
						{
							OFFSET 4.983000 -0.000000 -0.000000
							CHANNELS 3 Zrotation Yrotation Xrotation
							JOINT LeftHand
							{
								OFFSET 3.483560 -0.000000 -0.000000
								CHANNELS 3 Zrotation Yrotation Xrotation
								JOINT LeftFingerBase
								{
									OFFSET 0.000000 0.000000 0.000000
									CHANNELS 3 Zrotation Yrotation Xrotation
									JOINT LeftHandIndex1
									{
										OFFSET 0.715260 -0.000000 -0.000000
										CHANNELS 3 Zrotation Yrotation Xrotation
										End Site
										{
											OFFSET 0.000000 0.000000 0.000000
										}
									}
								}
								JOINT LThumb
								{
									OFFSET 0.000000 0.000000 0.000000
									CHANNELS 3 Zrotation Yrotation Xrotation
									End Site
									{
										OFFSET 0.000000 0.000000 0.000000
									}
								}
							}
						}
					}
				}
				JOINT RightShoulder
				{
					OFFSET 0.000000 0.000000 0.000000
					CHANNELS 3 Zrotation Yrotation Xrotation
					JOINT RightArm
					{
						OFFSET -3.136600 1.374050 -0.404650
						CHANNELS 3 Zrotation Yrotation Xrotation
						JOINT RightForeArm
						{
							OFFSET -5.241900 -0.000000 -0.000000
							CHANNELS 3 Zrotation Yrotation Xrotation
							JOINT RightHand
							{
								OFFSET -3.444170 -0.000000 -0.000000
								CHANNELS 3 Zrotation Yrotation Xrotation
								JOINT RightFingerBase
								{
									OFFSET 0.000000 0.000000 0.000000
									CHANNELS 3 Zrotation Yrotation Xrotation
									JOINT RightHandIndex1
									{
										OFFSET -0.622530 -0.000000 -0.000000
										CHANNELS 3 Zrotation Yrotation Xrotation
										End Site
										{
											OFFSET 0.000000 0.000000 0.000000
										}
									}
								}
								JOINT RThumb
								{
									OFFSET 0.000000 0.000000 0.000000
									CHANNELS 3 Zrotation Yrotation Xrotation
									End Site
									{
										OFFSET 0.000000 0.000000 0.000000
									}
								}
							}
						}
					}
				}
			}
		}
	}
}
MOTION
Frames: 9
Frame Time: 0.033333
1.298184 17.844759 -9.381294 5.023972 11.844244 12.537472 -16.073179 13.598029 -7.673163 -10.704895 16.274902 -17.985499 -14.174262 10.133116 11.349440 2.000386 3.649874 -2.563345 1.067352 0.023331 -46.371561 17.376171 -5.672014 14.755420 3.090234 -3.360126 -31.835781 2.155258 -8.296651 35.055229 -0.641972 -7.983986 7.064386 1.666571 -0.243051 -41.134088 3.592447 -13.860496 -12.920240 -4.391921 -2.252753 -4.340488 -8.209755 -0.720550 3.842188 11.910137 -9.547024 -11.064578 -2.883851 -0.336914 -0.558052 0.031267 0.009498 0.015605 7.007078 14.552978 9.549707 -30.010382 -20.554826 -23.141328 -9.188029 -46.982882 6.428485 7.691524 -1.452850 -0.116547 -0.195415 0.310767 0.028811 -0.013554 -0.082910 -0.032844 -0.015504 0.054042 -0.094778 23.771540 -25.101934 11.326899 62.631209 21.780508 4.628541 -9.861964 58.549850 -5.824284 -10.921425 11.073326 -1.100280 -0.085695 -0.342163 -0.043807 0.047336 0.066360 -0.024998 -0.009502 0.000056 0.029617 
1.365031 17.753189 -8.804268 2.775107 6.413025 11.695084 -17.310315 7.097985 -2.850571 -5.261338 8.484470 -23.341350 -16.650739 -3.510142 6.977495 0.859321 -2.470818 17.472586 1.229852 -0.033895 -42.623265 17.126237 -6.430381 14.493660 4.939186 -0.154562 -34.033045 -1.809554 -8.928443 40.127172 0.568309 -14.775611 21.592235 1.872874 -0.224033 -43.388295 4.154404 -10.430174 -10.157392 -3.323790 -1.389322 -4.056368 -8.975608 0.186920 2.734332 12.042486 -9.611688 -10.688868 -2.877729 -0.321332 -0.474016 0.030346 -0.000584 0.021997 7.419958 15.052757 9.091699 -36.679094 -21.765695 -21.457466 -10.183766 -47.373111 7.214306 7.299767 -1.109036 -0.095966 -0.227513 0.360900 0.023309 -0.000274 -0.086267 -0.034936 -0.022710 0.050788 -0.091025 24.175839 -22.660039 9.818319 63.415179 21.341070 4.225745 -9.348725 57.168890 -5.419391 -10.946565 10.955338 -1.102594 -0.066814 -0.435835 -0.035626 0.045012 0.066597 -0.044478 -0.006619 -0.010261 0.012778 
1.432166 17.704144 -8.230640 1.965858 2.308492 11.034044 -16.532952 2.809011 0.285939 -3.433898 4.794801 -26.317714 -14.162089 -9.479765 6.801707 4.464718 -4.597836 23.230067 1.364236 -0.057568 -39.807165 16.146818 -6.898229 13.724917 6.134207 2.046591 -36.161232 -5.595234 -9.276488 43.979303 -0.487290 -24.990550 43.990045 1.626715 -0.103821 -47.595174 4.133011 -8.155116 -7.280718 -3.630303 -0.608410 -4.254465 -8.559616 0.140949 2.567038 11.655682 -9.635948 -10.349411 -2.730938 -0.296740 -0.368484 0.038454 -0.001893 0.023461 6.557702 15.087294 8.263842 -42.619569 -22.046533 -18.441521 -9.463778 -45.097724 6.143714 6.798392 -0.720877 -0.094778 -0.262597 0.419645 0.016177 0.007752 -0.075984 -0.034460 -0.028090 0.053793 -0.077277 23.388445 -19.520735 6.382856 63.931830 19.599284 5.465374 -7.973575 55.929196 -4.322307 -10.355470 11.030097 -1.066990 -0.009569 -0.443910 -0.035052 0.036571 0.068722 -0.053499 -0.007430 -0.007744 -0.001954 
1.508212 17.695288 -7.661555 1.327256 0.759340 11.608350 -15.129471 0.917190 1.708568 -4.092086 4.716971 -28.784952 -13.309295 -8.652483 12.014127 2.169770 -1.052322 16.708393 1.312972 -0.103362 -37.943530 15.082358 -5.969572 14.339557 5.783313 5.754257 -38.628127 -3.564243 -6.807345 45.954886 -5.074708 -30.213705 68.437716 1.541927 -0.040742 -51.249522 3.499830 -8.193213 -5.571942 -3.415189 -0.857009 -4.339788 -8.357478 -0.856694 2.242242 11.688975 -9.684707 -10.439763 -2.526058 -0.268117 -0.406515 0.041871 0.000170 0.026912 6.290342 14.472895 7.399474 -49.746642 -20.974099 -14.936086 -8.547043 -42.155354 5.270944 6.427569 -0.338219 -0.091701 -0.248157 0.446013 0.003628 0.015255 -0.066855 -0.035615 -0.044361 0.060027 -0.060146 22.752295 -16.302313 3.923331 64.313241 17.753272 7.254981 -7.621285 54.807153 -4.033844 -9.884119 11.041934 -1.036287 0.009773 -0.540668 -0.030614 0.020641 0.066986 -0.059062 -0.011200 -0.003930 -0.016062 
1.583635 17.720810 -7.113948 0.840355 1.746951 11.530553 -14.376737 -1.412442 2.846109 -4.526453 5.226492 -29.678535 -13.086118 -9.791351 16.860997 0.400294 1.781522 12.001484 1.451635 -0.097736 -37.695234 13.465890 -1.742512 16.430259 1.823338 10.465504 -37.637877 13.274079 2.061807 46.483308 0.872780 -17.324759 88.192150 1.324485 -0.014641 -55.793161 3.476134 -7.680124 -4.545853 -3.674436 -2.167731 -4.089196 -7.540149 -1.919534 2.342878 11.221538 -9.811216 -9.878803 -2.520632 -0.257622 -0.252190 0.049077 0.011532 0.020937 5.171865 12.618655 7.027695 -53.716627 -20.655642 -11.842254 -7.428572 -38.740825 3.766337 6.242111 -0.134402 -0.096668 -0.249094 0.440080 -0.005103 0.018972 -0.052297 -0.032521 -0.044284 0.073594 -0.039163 20.251389 -14.501710 1.944746 64.361819 15.734868 8.437459 -5.180426 51.059754 -1.835010 -8.809166 11.050372 -0.933290 0.049084 -0.491476 -0.034163 0.009888 0.071433 -0.052777 -0.011647 0.007241 -0.019239 
1.644552 17.774943 -6.608209 -0.500361 0.722622 11.814486 -13.617953 -2.552641 3.988894 -4.508031 6.509115 -29.647403 -12.605650 -11.912253 18.130203 0.017459 4.205155 8.809770 1.362063 -0.094520 -38.460861 14.025536 1.586798 17.095858 -1.842269 11.674508 -35.823250 24.163753 7.919506 45.723242 9.781577 -7.437889 92.210496 1.216381 0.014497 -60.263359 3.758956 -7.887718 -4.431628 -3.517095 -2.987532 -4.254043 -7.112803 -3.368263 2.515822 11.257214 -10.129703 -9.604315 -2.261582 -0.227269 -0.357111 0.045241 0.026130 0.015596 4.369765 10.882573 5.946608 -57.959606 -18.538147 -8.516589 -6.933631 -36.110647 3.357669 6.054407 -0.055161 -0.104780 -0.279099 0.448896 -0.015001 0.015691 -0.042909 -0.034625 -0.052478 0.090535 -0.021720 17.745177 -12.298680 1.681585 63.755808 13.767487 9.501044 -5.369966 47.196900 -2.155055 -7.892140 10.875589 -0.838025 0.023518 -0.522265 -0.036439 -0.001823 0.072197 -0.048771 -0.015457 0.015912 -0.024588 
1.693608 17.850797 -6.148193 -0.479548 -0.569485 12.381087 -13.801270 -2.715790 4.923652 -4.668682 6.916819 -28.780859 -12.188397 -13.352803 17.007571 0.107505 5.953386 7.608833 1.434003 -0.076003 -39.693873 12.224953 3.495637 15.546401 -2.270589 13.185815 -35.834930 24.269692 8.829380 45.833897 11.142135 -2.747204 81.844920 0.978101 -0.004004 -63.448167 2.877851 -6.290458 -4.447712 -3.089788 -4.605204 -3.605952 -6.912818 -3.941019 2.618983 11.229050 -10.721990 -9.391076 -2.160568 -0.226289 -0.326745 0.038392 0.043172 0.005567 3.480138 8.071446 4.977065 -61.200448 -17.026348 -5.490716 -6.753291 -36.558131 2.865032 6.050718 -0.398911 -0.117534 -0.312496 0.412911 -0.022529 0.008897 -0.035562 -0.031774 -0.050503 0.107525 -0.002661 15.349582 -11.781199 -0.561267 63.558232 11.836171 9.060636 -3.463955 43.378756 -0.801870 -6.754397 10.732931 -0.714305 0.050609 -0.434295 -0.041250 0.000771 0.071061 -0.037649 -0.013350 0.023012 -0.016666 
1.743413 17.940714 -5.722826 -1.841671 -2.748096 13.270430 -13.114502 -2.814144 5.576042 -5.168463 8.860709 -28.363718 -11.296891 -15.341293 15.618800 0.586888 7.575183 7.052794 1.346168 -0.059960 -41.157960 11.337364 4.948538 13.369557 -2.125174 14.534674 -35.243749 20.158956 8.181316 43.609700 7.937267 1.190959 64.513527 0.703156 0.004506 -66.621688 2.717931 -3.652289 -4.629621 -3.374397 -5.719525 -3.789386 -6.165739 -5.439946 2.818322 10.985339 -11.524941 -9.088261 -2.003355 -0.202923 -0.328010 0.024284 0.061011 -0.004404 3.189607 5.707678 3.270975 -64.013001 -14.499785 -1.413723 -6.960955 -37.609783 2.690406 5.939768 -0.876932 -0.145918 -0.350209 0.409370 -0.027956 -0.006770 -0.032774 -0.035409 -0.050105 0.121981 0.013118 13.283343 -11.914673 -2.955962 63.390740 9.432199 8.220598 -2.206590 41.240546 -1.032559 -5.568994 10.539213 -0.589816 0.035407 -0.377586 -0.044013 0.007629 0.072473 -0.030876 -0.009082 0.023628 -0.016789 
1.795790 18.035889 -5.319212 -1.602208 -7.572892 13.783956 -13.997680 -1.659984 7.022996 -5.162017 8.785648 -27.717301 -9.959891 -14.288966 12.127312 1.110668 9.044329 7.302219 1.269928 -0.024643 -42.466186 11.666880 2.579729 9.027789 0.659530 10.733249 -33.206417 7.289195 3.206326 38.104295 1.394152 -0.780308 37.314420 0.545202 -0.011104 -68.490584 0.404753 0.242941 -3.285812 -2.396476 -6.227274 -3.708037 -5.918834 -5.431863 2.232941 10.549348 -12.325857 -9.068984 -2.000259 -0.204136 -0.338814 0.002823 0.063336 -0.010997 2.845160 3.641548 2.061768 -66.091110 -13.183702 2.557295 -7.472515 -39.531456 2.627696 5.523085 -1.236293 -0.143361 -0.356014 0.391418 -0.036236 -0.019112 -0.034935 -0.026814 -0.046119 0.132770 0.029002 12.243995 -13.174619 -5.850716 63.083069 7.343135 6.959734 0.319936 39.896417 0.143945 -4.406176 10.280736 -0.449249 0.064842 -0.282353 -0.048333 0.013715 0.058935 -0.027251 -0.006102 0.024528 -0.013915 
